#N canvas -7 23 1280 755 12;
#N canvas 0 22 450 278 (subpatch) 0;
#X array CNP 5 float 2;
#X coords 0 100 5 0 200 140 1 0 0;
#X restore 241 32 graph;
#X text 270 6 = current note probabilities;
#X obj 46 17 table CF;
#X text 111 19 Cantus Firmus;
#X obj 46 47 table CP;
#X text 111 49 Contraponto;
#X obj 48 74 table diatonic;
#X obj 572 6 loadbang;
#X obj 36 219 tgl 19 0 empty empty empty 0 -10 0 12 #fcfcfc #000000 #000000 0 1;
#X obj 36 243 metro 250;
#X obj 36 267 counter 10;
#X obj 281 409 tabread CF;
#X obj 570 130 table CI;
#X obj 453 410 array get CI;
#X obj 620 307 moses 20;
#X obj 690 307 moses 40;
#X obj 760 307 moses 60;
#X obj 696 222 bng 19 250 50 0 empty empty empty 0 -10 0 12 #fcfcfc #000000 #000000;
#X obj 696 246 array get CNP;
#X obj 36 291 t f f f f, f 34;
#X obj 36 339 t b f;
#X obj 36 363 s next-step;
#X obj 636 178 r next-step;
#X msg 620 331 0;
#X msg 690 331 1;
#X msg 760 331 2;
#X msg 828 330 3;
#X obj 696 270 unpack f f f f;
#X msg 888 330 4;
#X obj 830 307 moses 80;
#X obj 592 281 random 100;
#X obj 636 197 t b b;
#X obj 620 355 s decision;
#X obj 614 239 t a;
#X obj 453 388 r decision;
#X floatatom 453 434 5 0 0 0 - - - 0;
#X msg 572 30 \; CNP ylabel -0.2 0 10 20 30 40 50 60 70 80 90 100 \; CNP xlabel -2 0 1 2 3 4 5 \; diatonic 0 0 2 4 5 7 9 11 \; CF 0 2 4 3 2 5 4 6 5 4 3 2 \; CI 0 1 8 5 3 6 \;;
#X obj 281 473 +;
#X floatatom 279 373 5 0 0 0 - - - 0;
#X floatatom 281 537 5 0 0 0 indice - - 0;
#X obj 453 455 - 1;
#X obj 281 584 tabread diatonic;
#X floatatom 281 648 5 0 0 0 - - - 0;
#X obj 281 560 % 7;
#X floatatom 281 497 5 0 0 0 grau - - 0;
#X obj 281 517 - 1;
#X floatatom 845 380 5 0 0 0 - - - 0;
#X obj 845 403 v mode;
#X obj 281 441 expr $f1+mode;
#X obj 281 616 expr $f1+tonic;
#X floatatom 895 380 5 0 0 0 - - - 0;
#X obj 895 403 v tonic;
#X connect 7 0 36 0;
#X connect 8 0 9 0;
#X connect 9 0 10 0;
#X connect 10 0 19 0;
#X connect 11 0 48 0;
#X connect 13 0 35 0;
#X connect 14 0 23 0;
#X connect 14 1 15 0;
#X connect 15 0 24 0;
#X connect 15 1 16 0;
#X connect 16 0 25 0;
#X connect 16 1 29 0;
#X connect 17 0 18 0;
#X connect 18 0 27 0;
#X connect 20 0 21 0;
#X connect 22 0 31 0;
#X connect 23 0 32 0;
#X connect 24 0 32 0;
#X connect 25 0 32 0;
#X connect 26 0 32 0;
#X connect 27 0 14 1;
#X connect 27 1 15 1;
#X connect 27 2 16 1;
#X connect 28 0 32 0;
#X connect 29 0 26 0;
#X connect 29 1 28 0;
#X connect 30 0 14 0;
#X connect 31 0 33 0;
#X connect 31 1 17 0;
#X connect 33 0 30 0;
#X connect 34 0 13 0;
#X connect 35 0 40 0;
#X connect 37 0 44 0;
#X connect 38 0 11 0;
#X connect 39 0 43 0;
#X connect 40 0 37 1;
#X connect 41 0 49 0;
#X connect 43 0 41 0;
#X connect 44 0 45 0;
#X connect 45 0 39 0;
#X connect 46 0 47 0;
#X connect 48 0 37 0;
#X connect 49 0 42 0;
#X connect 50 0 51 0;
